Coordinates
version=1
nRows=22
nColumns=24
inDegrees=yes

Units are S.I. units (second, meters, Newtons, ...)
Angles are in degrees.

endheader
time	pelvis_tilt	pelvis_list	pelvis_rotation	pelvis_tx	pelvis_ty	pelvis_tz	hip_flexion_r	hip_adduction_r	hip_rotation_r	knee_angle_r	ankle_angle_r	subtalar_angle_r	mtp_angle_r	hip_flexion_l	hip_adduction_l	hip_rotation_l	knee_angle_l	ankle_angle_l	subtalar_angle_l	mtp_angle_l	lumbar_extension	lumbar_bending	lumbar_rotation
      5.44000000	      8.24526028	     -1.06311340	     -7.43103745	     -0.90563784	      0.72686798	      0.29776933	    -21.01003852	      3.69516822	      9.55536377	    -23.38083113	     19.21908369	     -7.06986370	      0.00000000	      9.29174001	      0.36520400	     -0.67811463	      1.94829385	     -4.63167060	    -23.64779789	      0.00000000	    -26.08122544	     -7.30274350	     10.86456025
      5.45000000	      8.65532717	      0.06119159	     -7.03028567	     -0.89244420	      0.72746174	      0.29667724	    -20.07888443	      2.56650034	      8.13349903	    -27.25941019	     17.34049566	     -6.38037673	      0.00000000	      9.43842192	      1.85255183	      0.37207855	     -0.56081838	     -6.02014004	    -25.14930212	      0.00000000	    -26.44822700	     -8.55751849	     10.07635482
      5.46000000	      9.01573615	      1.19773691	     -6.68301436	     -0.87939919	      0.72820286	      0.29564546	    -18.79463283	      1.40012505	      6.83385724	    -31.50080877	     14.84692858	     -5.95810568	      0.00000000	      9.67571553	      3.33345237	      0.56646708	     -3.19888689	     -6.59092691	    -25.77234240	      0.00000000	    -26.77981958	     -9.80955404	      9.32675311
      5.47000000	      9.37916030	      2.28274937	     -6.35213432	     -0.86650133	      0.72906379	      0.29455628	    -17.23484503	      0.16221042	      5.40000518	    -36.00293204	     11.85757391	     -5.34845241	      0.00000000	      9.75081425	      4.73327751	      0.41632831	     -5.59993384	     -6.69251356	    -25.99913781	      0.00000000	    -27.13653012	    -10.94915273	      8.55813509
      5.48000000	      9.65372295	      3.31289232	     -6.11187230	     -0.85378810	      0.72989796	      0.29354700	    -15.35726366	     -1.10274578	      4.18078444	    -40.62673032	      8.30657546	     -4.99165850	      0.00000000	      9.78502664	      6.00140424	     -0.34018230	     -7.77235411	     -5.84212487	    -25.35954003	      0.00000000	    -27.38728515	    -12.01224376	      7.85705959
      5.49000000	      9.84528381	      4.20431457	     -5.97823067	     -0.84127805	      0.73074484	      0.29262703	    -13.25496516	     -2.26801509	      3.32986837	    -45.16803095	      3.99993363	     -5.26253376	      0.00000000	      9.57478123	      7.08071388	     -1.06087418	     -9.38120888	     -4.81684630	    -24.83092221	      0.00000000	    -27.53800500	    -12.90986223	      7.26676963
      5.50000000	      9.99381239	      5.02607803	     -5.95815821	     -0.82897564	      0.73163212	      0.29176303	    -10.96447549	     -3.44381696	      2.70621658	    -49.57542939	     -0.67465343	     -5.82454120	      0.00000000	      9.06006143	      8.08479868	     -1.63407062	    -10.37457277	     -3.70298346	    -24.46702032	      0.00000000	    -27.61788396	    -13.72735441	      6.78956354
      5.51000000	     10.11491788	      5.76026521	     -6.01159959	     -0.81690267	      0.73261650	      0.29095003	     -8.56178169	     -4.55716111	      2.32411166	    -53.72699559	     -5.55143751	     -6.79250421	      0.00000000	      8.28877891	      9.00793390	     -2.11432750	    -10.85842044	     -2.49320472	    -24.11984250	      0.00000000	    -27.66270905	    -14.43926785	      6.37480820
      5.52000000	     10.23224654	      6.40630452	     -6.09397456	     -0.80507054	      0.73375699	      0.29017423	     -6.12186633	     -5.57600264	      2.12479930	    -57.53329750	    -10.30424985	     -8.08733866	      0.00000000	      7.31871775	      9.85179720	     -2.56016771	    -10.98185839	     -1.18860049	    -23.62459005	      0.00000000	    -27.72148391	    -15.03914878	      5.96961340
      5.53000000	     10.25095180	      6.94709374	     -6.21303781	     -0.79342719	      0.73498905	      0.28946993	     -3.57276350	     -6.43775970	      2.13076535	    -60.95047224	    -14.51567037	     -9.50832802	      0.00000000	      6.19903050	     10.60941748	     -2.69199468	    -10.65856163	     -0.32360738	    -23.57099407	      0.00000000	    -27.65709874	    -15.52536085	      5.63948623
      5.54000000	     10.26308756	      7.31669341	     -6.27916673	     -0.78190933	      0.73644098	      0.28878848	     -1.12989298	     -7.01934173	      2.25514918	    -63.84649432	    -17.77365582	    -11.01817441	      0.00000000	      4.93374567	     11.20304673	     -2.63672219	    -10.11968315	      0.64023258	    -23.34331886	      0.00000000	    -27.59670567	    -15.79421892	      5.31679452
      5.55000000	     10.23427036	      7.55324355	     -6.28321198	     -0.77051060	      0.73803407	      0.28814517	      1.22335842	     -7.36508327	      2.42696238	    -66.21371727	    -19.64846037	    -12.33814627	      0.00000000	      3.64287224	     11.65035707	     -2.48108826	     -9.49582716	      1.50375066	    -23.05975177	      0.00000000	    -27.50809877	    -15.90510428	      4.98658902
      5.56000000	     10.19581329	      7.63912068	     -6.20034247	     -0.75914024	      0.73976954	      0.28750471	      3.38997186	     -7.46820341	      2.57234121	    -67.99491001	    -19.81798156	    -13.29705601	      0.00000000	      2.28654746	     11.93553599	     -2.16187019	     -8.79701857	      2.32754642	    -22.80913914	      0.00000000	    -27.41431969	    -15.82609589	      4.64009954
      5.57000000	     10.05181630	      7.49771053	     -6.02337366	     -0.74782320	      0.74155657	      0.28692764	      5.44502815	     -7.19659527	      2.70877811	    -69.16198720	    -18.39869690	    -13.93027044	      0.00000000	      1.04503693	     11.93511731	     -1.88699226	     -8.15871745	      3.11081660	    -22.34267566	      0.00000000	    -27.21058631	    -15.49029416	      4.33450103
      5.58000000	      9.95305643	      7.19153438	     -5.76382513	     -0.73651448	      0.74346963	      0.28635240	      7.21810572	     -6.68994935	      2.77448012	    -69.70823823	    -15.48689324	    -14.02906368	      0.00000000	     -0.27363344	     11.74678169	     -1.52768396	     -7.51321348	      3.87259792	    -21.88399830	      0.00000000	    -27.07526417	    -14.95608514	      4.00503209
      5.59000000	      9.82480972	      6.75074818	     -5.41648453	     -0.72523080	      0.74535965	      0.28579905	      8.82598686	     -6.00567491	      2.73359497	    -69.68595660	    -11.48029316	    -13.60631673	      0.00000000	     -1.55241154	     11.38367763	     -1.16177579	     -6.89693146	      4.63150218	    -21.40108061	      0.00000000	    -26.92328152	    -14.27694467	      3.66539118
      5.60000000	      9.69570635	      6.20222113	     -5.01360424	     -0.71402281	      0.74718575	      0.28523825	     10.27101752	     -5.18483142	      2.63980365	    -69.13699639	     -6.98437531	    -12.87105421	      0.00000000	     -2.78653988	     10.88253824	     -0.77225720	     -6.35266161	      5.36204771	    -20.90351537	      0.00000000	    -26.79208572	    -13.46107473	      3.30144988
      5.61000000	      9.55727089	      5.56435677	     -4.55199548	     -0.70290424	      0.74888886	      0.28466743	     11.57880208	     -4.27473612	      2.46820925	    -68.10037117	     -2.61188489	    -12.06056271	      0.00000000	     -3.95907102	     10.26209051	     -0.37001066	     -5.87558574	      6.09492887	    -20.45987949	      0.00000000	    -26.68245856	    -12.54387124	      2.93086174
      5.62000000	      9.41396847	      4.89998185	     -4.06139065	     -0.69192464	      0.75040420	      0.28410882	     12.77570159	     -3.34830161	      2.26310800	    -66.63343867	      1.19957274	    -11.43131156	      0.00000000	     -5.04744577	      9.59242768	      0.04448685	     -5.49263359	      6.80850961	    -20.06776749	      0.00000000	    -26.60802612	    -11.59974862	      2.52866625
      5.63000000	      9.26750404	      4.24055708	     -3.55366396	     -0.68109548	      0.75169748	      0.28356806	     13.85685303	     -2.44293879	      2.05135905	    -64.75553886	      4.17186606	    -11.20926447	      0.00000000	     -6.04611008	      8.91020098	      0.48499385	     -5.21186604	      7.49719314	    -19.74742671	      0.00000000	    -26.57205058	    -10.66363975	      2.07266026
      5.64000000	      9.06012060	      3.64057266	     -3.04411475	     -0.67038466	      0.75264350	      0.28302169	     14.89654713	     -1.65227457	      1.80949893	    -62.50856706	      6.23041310	    -11.57400280	      0.00000000	     -6.89668127	      8.27892614	      0.94904292	     -5.02356361	      8.20534450	    -19.57724670	      0.00000000	    -26.48702799	     -9.78701650	      1.65605622
      5.65000000	      8.91437721	      3.16706700	     -2.53654900	     -0.65979304	      0.75335445	      0.28250208	     15.74889018	     -1.06552079	      1.54507641	    -59.91022340	      7.72563368	    -12.14087112	      0.00000000	     -7.74444859	      7.77110463	      1.42727398	     -4.90917859	      8.87374953	    -19.39228667	      0.00000000	    -26.51526250	     -9.06617026	      1.13367019
